<?xml version="1.0" encoding="utf-8"?>
<svg width="512" height="512" viewBox="20 13.6 68.108 77.607" xmlns="http://www.w3.org/2000/svg">
  <path fill="#F05133" d="M 69.835 44.867 L 50.642 25.676 C 49.537 24.57 47.745 24.57 46.639 25.676 L 42.653 29.662 L 47.709 34.717 C 48.884 34.319 50.231 34.586 51.167 35.523 C 52.109 36.465 52.372 37.825 51.966 39.003 L 56.838 43.875 C 58.018 43.469 59.378 43.733 60.319 44.675 C 61.635 45.991 61.635 48.122 60.319 49.439 C 59.002 50.755 56.871 50.755 55.554 49.439 C 54.564 48.448 54.32 46.994 54.822 45.775 L 50.277 41.232 L 50.277 53.189 C 50.597 53.348 50.9 53.559 51.167 53.826 C 52.482 55.142 52.482 57.273 51.167 58.591 C 49.851 59.906 47.718 59.906 46.403 58.591 C 45.088 57.273 45.088 55.141 46.403 53.826 C 46.729 53.501 47.106 53.255 47.507 53.092 L 47.507 41.021 C 47.106 40.857 46.729 40.614 46.403 40.286 C 45.408 39.29 45.168 37.828 45.679 36.604 L 40.695 31.62 L 27.535 44.778 C 26.429 45.885 26.429 47.677 27.535 48.782 L 46.728 67.975 C 47.833 69.08 49.625 69.08 50.732 67.975 L 69.835 48.872 C 70.94 47.766 70.94 45.973 69.835 44.867 Z" style=""/>
  <g stroke-linejoin="round" stroke="#111" stroke-width=".7" fill="#aab" transform="matrix(4.010365, 0, 0, 4.010365, 8.992193, 14.079422)" style="opacity: 1;">
    <rect transform="matrix(-.9023 -.4311 -.4311 .9023 0 0)" height="3.8" width="1.5" y="-6.4" x="-15.8" style="fill-opacity: 0; opacity: 1;"/>
    <rect transform="matrix(.9023 -.4311 .4311 .9023 0 0)" height="3.8" width="1.5" y="2.1" x="2" style="fill-opacity: 0; opacity: 1;"/>
    <rect height="16" width="15.8" y="2.7" x="2.1" stroke-width="1" style="fill-opacity: 0; opacity: 1;"/>
    <g fill="#f87" style="opacity: 1;">
      <ellipse rx="2.7" ry="2.5" cy="7.5" cx="6.6" style="fill-opacity: 0;"/>
      <ellipse rx="2.7" ry="2.5" cy="7.5" cx="13.5" style="fill-opacity: 0;"/>
      <circle r="0.5" cy="7.3" cx="6.7" style="fill-opacity: 0;"/>
      <circle r="0.5" cy="7.3" cx="13.7" style="fill-opacity: 0;"/>
    </g>
    <rect height="4.3" width="11.4" y="12.4" x="4.4" fill="#eee" style="fill-opacity: 0; opacity: 1;"/>
    <path fill="none" d="m6.503 12.32v4.26m6.757-4.26v4.26m-4.547-4.26v4.26m2.277-4.26v4.26m-6.571-2.22h11.24" style="fill-opacity: 0; opacity: 1;"/>
  </g>
</svg>